<svg width="21" height="13" viewBox="0 0 21 13" fill="none" xmlns="http://www.w3.org/2000/svg">
<path d="M7.91406 12.4766C8.10938 12.3203 8.1875 12.0859 8.1875 11.8125C8.1875 11.5781 8.10938 11.3438 7.91406 11.1875L4.20312 7.4375H20.0625C20.6094 7.4375 21 7.04688 21 6.5C21 5.99219 20.6094 5.5625 20.0625 5.5625H4.20312L7.91406 1.85156C8.30469 1.5 8.30469 0.914062 7.91406 0.5625C7.5625 0.171875 6.97656 0.171875 6.58594 0.5625L1.27344 5.875C0.921875 6.22656 0.921875 6.8125 1.27344 7.16406L6.58594 12.4766C6.97656 12.8672 7.5625 12.8672 7.91406 12.4766Z" fill="white"/>
</svg>
