<svg width="125" height="125" viewBox="0 0 125 125" fill="none" xmlns="http://www.w3.org/2000/svg">
<path d="M0 51.0244C0 48.8272 0 46.6299 0 44.4327C0.407707 41.9572 0.620105 39.4279 1.2573 37.0134C6.26208 18.0734 18.2662 6.09363 37.26 1.21579C39.6013 0.615218 42.0402 0.3955 44.4327 0C46.6299 0 48.8272 0 51.0244 0C51.3344 0.0707994 51.6445 0.180655 51.9594 0.20751C57.6087 0.67625 63.0383 2.04829 68.0919 4.60195C84.3074 12.8025 93.4528 25.9394 95.2545 44.0739C95.3717 45.2579 95.755 45.756 96.9024 46.149C110.493 50.7949 119.358 60.0623 123.481 73.7974C124.233 76.3047 124.507 78.9584 125 81.5438C125 83.5775 125 85.6136 125 87.6472C124.927 87.9597 124.819 88.2698 124.79 88.5871C124.26 94.1193 122.642 99.3145 119.922 104.151C119.505 104.893 119.461 105.53 119.683 106.319C121.292 112.017 122.869 117.725 124.448 123.433C124.561 123.838 124.634 124.255 124.746 124.761C124.441 124.697 124.285 124.675 124.133 124.634C118.308 123.025 112.476 121.44 106.665 119.778C105.611 119.478 104.815 119.651 103.821 120.078C100.665 121.436 97.4712 122.737 94.1998 123.774C92.0978 124.441 89.8371 124.609 87.6472 125C85.6136 125 83.5775 125 81.5438 125C81.2313 124.927 80.9237 124.814 80.6063 124.785C64.5715 123.247 50.8535 112.083 46.0343 96.5826C45.7584 95.6964 45.3751 95.3814 44.4645 95.3204C37.2185 94.8346 30.4315 92.7985 24.1011 89.2219C23.7105 89.0022 23.0879 88.9875 22.6338 89.1096C18.2809 90.2717 13.9426 91.4875 9.59942 92.6837C6.52575 93.5309 3.45208 94.3731 0.23437 95.2569C0.361321 94.7003 0.43212 94.3146 0.537099 93.9362C2.41694 87.1297 4.2797 80.3158 6.21082 73.524C6.5111 72.4717 6.45984 71.6588 5.90809 70.6822C3.69622 66.7736 2.08736 62.6111 1.19138 58.202C0.707994 55.8266 0.390617 53.4169 0 51.0244ZM10.698 84.7298C11.0716 84.6419 11.2595 84.6053 11.4426 84.554C15.3976 83.4652 19.3624 82.4081 23.3003 81.2631C24.2525 80.9847 24.9629 81.1117 25.7881 81.6366C34.9944 87.491 44.9918 89.405 55.6874 87.3396C77.7768 83.0745 92.2711 60.9094 87.0833 38.8664C83.4823 23.5713 73.8682 13.2859 58.7733 8.9671C43.7687 4.67276 30.268 8.31771 19.1427 19.2916C5.51259 32.7386 3.49114 53.3559 13.8376 69.7057C14.3332 70.4893 14.4724 71.1656 14.2087 72.0787C13.0149 76.2119 11.8992 80.3695 10.698 84.7298ZM95.1519 53.2534C93.7018 64.3127 89.1853 73.7193 81.4169 81.473C73.6558 89.2243 64.2419 93.7238 53.2802 95.1519C53.3974 95.5401 53.4658 95.8038 53.5561 96.0601C57.9163 108.377 70.377 117.366 83.4798 117.661C90.5549 117.822 97.0611 116.011 102.962 112.09C103.658 111.629 104.27 111.487 105.108 111.748C107.393 112.459 109.715 113.057 112.024 113.689C112.735 113.884 113.457 114.043 114.295 114.248C113.474 111.277 112.771 108.479 111.909 105.733C111.521 104.495 111.68 103.57 112.383 102.469C120.977 89.0144 118.941 71.8174 107.469 60.7215C103.98 57.3475 99.9321 54.8598 95.1519 53.2534Z" fill="white"/>
<path d="M40.3253 36.5761C37.901 36.5761 35.5891 36.5761 33.1648 36.5761C33.0208 34.0761 33.6506 31.7935 34.8493 29.7037C37.9206 24.3473 42.6177 21.613 48.7724 22.0524C54.8123 22.4845 59.1726 25.712 61.3454 31.3931C63.5548 37.1694 62.3341 42.4476 58.091 46.93C56.4187 48.6975 54.5633 50.3064 52.7054 51.8859C51.724 52.7209 51.2382 53.5949 51.3651 54.9108C51.4847 56.1559 51.3895 57.4181 51.3895 58.756C48.9506 58.756 46.6142 58.756 44.063 58.756C44.063 57.589 44.0532 56.3903 44.0655 55.194C44.0801 53.4484 43.6236 51.488 44.2705 50.0159C44.9175 48.5437 46.6679 47.5525 47.9448 46.3636C49.6122 44.8109 51.3358 43.3192 52.9495 41.7128C55.1394 39.5302 55.6448 36.2319 54.3314 33.478C53.0203 30.729 50.0956 29.0567 47.0634 29.3228C44.0508 29.5889 41.4825 31.7471 40.6744 34.7182C40.5182 35.2944 40.4498 35.8998 40.3253 36.5761Z" fill="white"/>
<path d="M51.2919 73.4506C48.8944 73.4506 46.5825 73.4506 44.168 73.4506C44.168 71.0531 44.168 68.6849 44.168 66.2361C46.5117 66.2361 48.8505 66.2361 51.2919 66.2361C51.2919 68.5897 51.2919 70.9603 51.2919 73.4506Z" fill="white"/>
</svg>
