<svg width="125" height="125" viewBox="0 0 125 125" fill="none" xmlns="http://www.w3.org/2000/svg">
<path d="M5.2577 72.8873C5.2577 88.6017 5.2577 104.111 5.2577 119.715C13.9378 119.715 22.5507 119.715 31.2577 119.715C31.2577 119.094 31.2577 118.553 31.2577 118.012C31.2577 92.0333 31.2577 66.0576 31.2577 40.0784C31.2577 37.2344 31.9998 36.4789 34.8036 36.4789C53.2685 36.4789 71.7368 36.4789 90.2017 36.4789C93.0022 36.4789 93.7476 37.2377 93.7476 40.0818C93.7476 66.0609 93.7476 92.0367 93.7476 118.016C93.7476 118.556 93.7476 119.097 93.7476 119.722C102.428 119.722 111.01 119.722 119.704 119.722C119.704 104.168 119.704 88.6285 119.704 72.9511C119.254 72.9309 118.811 72.8906 118.368 72.8906C113.206 72.8873 108.042 72.8873 102.881 72.8873C102.545 72.8873 102.209 72.894 101.874 72.8839C100.07 72.8403 98.9792 71.8363 99.006 70.2581C99.0329 68.7337 100.107 67.7566 101.85 67.7465C105.208 67.7297 108.566 67.7398 111.924 67.7398C114.566 67.7398 117.212 67.7129 119.855 67.7499C122.776 67.7935 124.976 69.9324 124.979 72.847C125.006 88.5009 125.006 104.155 124.982 119.809C124.979 122.791 122.79 124.899 119.788 124.99C119.452 125 119.116 124.997 118.781 124.997C81.2597 124.997 43.7389 124.997 6.22141 124.99C5.46925 124.99 4.69358 125.007 3.96828 124.842C1.62784 124.312 0.036215 122.29 0.0194257 119.806C-0.014153 115.316 0.00599421 110.823 0.00599421 106.334C0.00599421 95.4213 0.00263634 84.5119 0.00599421 73.5991C0.00599421 69.7142 1.99721 67.7398 5.90241 67.7398C11.5268 67.7364 17.1513 67.7331 22.7723 67.7465C23.3096 67.7465 23.8804 67.7599 24.3808 67.9312C25.5258 68.3241 26.1705 69.553 25.969 70.7652C25.7541 72.0411 24.7501 72.8705 23.2492 72.8738C17.7926 72.894 12.3361 72.8839 6.88291 72.8839C6.38594 72.8873 5.88898 72.8873 5.2577 72.8873ZM49.4707 119.752C49.4707 119.147 49.4707 118.647 49.4707 118.15C49.4707 109.464 49.4707 100.78 49.4707 92.0938C49.4707 89.4143 50.327 88.5513 53.0066 88.548C59.3429 88.5412 65.6792 88.5412 72.0155 88.548C74.6917 88.5513 75.5513 89.4176 75.5513 92.0938C75.5547 100.821 75.5513 109.548 75.5513 118.278C75.5513 118.761 75.5513 119.245 75.5513 119.755C79.9669 119.755 84.1844 119.755 88.4825 119.755C88.4825 93.7256 88.4825 67.7734 88.4825 41.7405C71.1458 41.7405 53.883 41.7405 36.5463 41.7405C36.5463 67.77 36.5463 93.7223 36.5463 119.755C40.831 119.752 45.0484 119.752 49.4707 119.752ZM54.7493 93.7794C54.7493 102.473 54.7493 111.062 54.7493 119.728C59.9238 119.728 65.0613 119.728 70.2123 119.728C70.2123 111.042 70.2123 102.429 70.2123 93.7794C65.0445 93.7794 59.9742 93.7794 54.7493 93.7794Z" fill="white"/>
<path d="M62.405 0C64.5876 0.0235044 66.1658 0.980471 67.1564 2.83732C67.9253 4.27781 68.5566 5.79553 69.3658 7.20915C69.6277 7.66581 70.2221 8.10568 70.7358 8.21648C72.1663 8.52876 73.6303 8.66978 75.0843 8.86789C77.2971 9.16674 78.9693 10.2144 79.7047 12.3936C80.4501 14.603 79.8558 16.5136 78.2004 18.1219C77.1158 19.1729 75.9842 20.1802 74.9802 21.3051C74.6276 21.698 74.3993 22.4031 74.4564 22.9236C74.631 24.5017 74.9903 26.0597 75.2455 27.6312C75.5846 29.713 74.9533 31.4691 73.2677 32.7451C71.5887 34.0143 69.7184 34.1923 67.8179 33.2756C66.3102 32.5503 64.826 31.7679 63.3653 30.9453C62.7441 30.5961 62.2572 30.6062 61.6427 30.9554C60.2962 31.7209 58.9094 32.416 57.5327 33.1278C55.5751 34.1385 53.6342 34.1285 51.8478 32.8055C50.0312 31.459 49.3697 29.6055 49.813 27.3659C49.9674 26.5869 49.9506 25.7508 50.2226 25.0188C51.0554 22.7825 50.4342 21.1137 48.5303 19.7471C47.7546 19.1931 47.1132 18.4376 46.4618 17.7291C43.6479 14.6869 45.0817 9.9726 49.128 9.07608C50.8002 8.70672 52.516 8.52876 54.2185 8.30379C54.9471 8.20977 55.4105 7.91764 55.7262 7.21251C56.3944 5.72501 57.1298 4.26438 57.892 2.82053C58.8523 1.00062 60.397 0.0671556 62.405 0ZM50.451 14.1127C52.0426 15.7715 53.4965 17.3295 55.0076 18.8338C55.8806 19.7034 56.2534 20.647 56.0217 21.8894C55.6187 24.0451 55.2964 26.2175 54.9069 28.5848C56.8914 27.5573 58.7113 26.7044 60.4373 25.6904C61.861 24.8509 63.1269 24.8408 64.554 25.6803C66.2934 26.7011 68.1234 27.5707 70.0811 28.5915C69.7016 26.2511 69.4263 24.1357 68.9897 22.0505C68.6943 20.6369 69.1744 19.6497 70.1415 18.6894C71.6223 17.2254 73.0158 15.6741 74.4967 14.1094C73.1132 13.8945 71.676 13.4748 70.2456 13.4848C67.2101 13.505 65.4506 12.0712 64.4936 9.27754C64.0335 7.93779 63.2579 6.70884 62.5191 5.22135C61.4245 7.40726 60.444 9.29769 59.5273 11.2217C58.9699 12.3868 58.1405 13.0181 56.8343 13.1726C54.7188 13.4244 52.6168 13.787 50.451 14.1127Z" fill="white"/>
<path d="M18.1553 28.9205C18.2997 28.0441 18.5616 26.8085 18.6724 25.5627C18.7127 25.1061 18.5079 24.5218 18.209 24.1659C17.5374 23.3668 16.7114 22.7019 15.9928 21.9363C14.7739 20.6369 14.3743 19.0957 14.9485 17.4033C15.516 15.7278 16.7047 14.4586 18.4844 14.4283C21.493 14.378 23.2727 13.0953 24.2666 10.2479C24.8442 8.59253 26.3753 7.81688 28.1819 7.80681C29.9817 7.80009 31.5834 8.5388 32.1274 10.1908C33.1045 13.1591 35.0487 14.1463 38.0036 14.4586C41.4622 14.8246 42.839 19.0486 40.5691 21.7248C39.8404 22.5844 38.917 23.2828 38.2018 24.1525C37.8861 24.5353 37.7014 25.1632 37.7317 25.6635C37.7887 26.6607 38.0574 27.6446 38.2018 28.6385C38.4536 30.3576 37.8928 31.8048 36.5363 32.8659C35.136 33.9605 33.5444 34.1452 31.9158 33.4334C30.8816 32.9834 29.9246 32.3522 28.887 31.9089C28.5009 31.7444 27.9233 31.7478 27.5338 31.9123C26.4593 32.3723 25.4721 33.0372 24.3909 33.4837C21.3587 34.7496 18.1318 32.5469 18.1553 28.9205ZM32.9769 27.9703C31.2375 24.3002 32.3288 21.52 35.6128 19.4751C33.7492 19.0016 31.9125 18.9882 30.7137 18.1051C29.5183 17.2254 28.9676 15.476 28.0946 14.0489C27.6413 14.9589 27.1577 15.795 26.7951 16.6814C26.241 18.0312 25.284 18.7263 23.8402 18.8573C22.8765 18.9446 21.9228 19.136 20.939 19.2837C22.0605 20.6302 23.5144 21.7013 23.9543 23.0948C24.4043 24.5218 23.8603 26.2612 23.7562 27.7856C25.2236 27.198 26.7246 26.1201 28.2155 26.1302C29.7097 26.1369 31.1972 27.2316 32.9769 27.9703Z" fill="white"/>
<path d="M96.8769 7.78662C98.5927 7.8202 100.157 8.53541 100.695 10.1337C101.699 13.1288 103.653 14.153 106.672 14.4686C110.073 14.8212 111.42 19.0083 109.23 21.6643C108.938 22.0202 108.639 22.403 108.26 22.6448C106.235 23.9241 106.037 25.6903 106.648 27.8258C107.229 29.8506 106.762 31.6772 104.989 32.97C103.26 34.2291 101.343 34.209 99.7109 32.9834C97.5283 31.3448 95.7318 31.9257 93.6197 33.1513C90.4935 34.9645 86.8267 32.9229 86.7865 29.4779C86.773 28.2791 87.0148 27.0535 87.3002 25.8817C87.5118 25.012 87.27 24.4681 86.6387 23.9207C85.9403 23.3197 85.2989 22.6515 84.6609 21.9867C83.4219 20.6973 83.0357 19.1527 83.5562 17.4604C84.0934 15.7076 85.3258 14.4518 87.1558 14.4014C90.1611 14.3209 91.924 13.0214 92.9045 10.1673C93.4653 8.50519 95.0502 7.78998 96.8769 7.78662ZM97.0179 13.8843C96.9171 13.9448 96.8164 14.0052 96.7157 14.0623C96.2758 14.9488 95.799 15.8218 95.4095 16.7317C94.8621 18.0111 93.9421 18.7061 92.5519 18.8438C91.5748 18.9412 90.6077 19.1258 89.1034 19.3508C92.787 21.5132 93.6063 24.3774 92.1792 28.1146C95.2651 25.5325 98.2334 25.5123 101.215 28.1348C101.094 26.1973 100.55 24.4446 101.017 23.0242C101.477 21.624 102.961 20.5596 104.241 19.062C100.151 19.5153 97.854 17.7055 97.0179 13.8843Z" fill="white"/>
<path d="M106.745 93.7324C105.11 93.7324 103.472 93.7525 101.836 93.7257C100.016 93.6988 99.0123 92.725 99.0022 90.9253C98.9787 87.5675 98.9753 84.2097 99.0056 80.852C99.019 79.2033 100.026 78.1523 101.665 78.1322C105.063 78.0919 108.465 78.0952 111.863 78.1288C113.565 78.1456 114.586 79.2033 114.596 80.9191C114.62 84.2332 114.626 87.5507 114.593 90.8648C114.573 92.7183 113.532 93.6854 111.658 93.729C111.618 93.729 111.574 93.729 111.534 93.729C109.935 93.7324 108.34 93.7324 106.745 93.7324ZM104.24 88.4237C106 88.4237 107.642 88.4237 109.271 88.4237C109.271 86.6811 109.271 85.0357 109.271 83.4072C107.548 83.4072 105.929 83.4072 104.24 83.4072C104.24 85.0861 104.24 86.6978 104.24 88.4237Z" fill="white"/>
<path d="M26.0093 85.9625C26.0093 87.5978 26.0261 89.2363 26.006 90.8716C25.9824 92.6881 25.0087 93.7089 23.2223 93.7257C19.8644 93.7526 16.5099 93.7559 13.152 93.7223C11.51 93.7055 10.4422 92.6949 10.4187 91.0596C10.3717 87.6213 10.3684 84.1795 10.4221 80.7378C10.4489 79.1731 11.5201 78.1557 13.0916 78.1355C16.5334 78.0986 19.9719 78.0919 23.4137 78.1389C24.9751 78.159 25.9657 79.2234 25.9992 80.8016C26.0328 82.5208 26.006 84.2433 26.0093 85.9625ZM20.7442 88.4473C20.7442 86.7281 20.7442 85.0861 20.7442 83.4341C19.0048 83.4341 17.3594 83.4341 15.7376 83.4341C15.7376 85.1734 15.7376 86.8187 15.7376 88.4473C17.4568 88.4473 19.0753 88.4473 20.7442 88.4473Z" fill="white"/>
<path d="M26.009 106.764C26.009 108.443 26.0292 110.122 26.0023 111.801C25.9755 113.52 24.9849 114.561 23.2657 114.581C19.9078 114.621 16.5533 114.621 13.1954 114.581C11.4863 114.561 10.4353 113.52 10.4151 111.821C10.3748 108.463 10.3748 105.105 10.4151 101.751C10.4353 100.022 11.4628 99.0108 13.1786 98.9941C16.5365 98.9638 19.891 98.9638 23.2489 98.9907C25.0017 99.0041 25.952 99.9913 26.009 101.727C26.0124 101.811 26.0124 101.895 26.0124 101.979C26.009 103.577 26.009 105.169 26.009 106.764ZM15.697 104.225C15.697 105.998 15.697 107.617 15.697 109.296C17.4095 109.296 19.0583 109.296 20.7372 109.296C20.7372 107.57 20.7372 105.921 20.7372 104.225C19.018 104.225 17.4028 104.225 15.697 104.225Z" fill="white"/>
<path d="M98.9923 106.818C98.9923 105.182 98.9789 103.544 98.9957 101.909C99.0158 99.9879 99.9459 99.0074 101.833 98.994C105.147 98.9671 108.465 98.9671 111.779 98.9973C113.582 99.0141 114.576 100.008 114.593 101.825C114.623 105.139 114.627 108.456 114.59 111.77C114.569 113.543 113.518 114.571 111.732 114.587C108.418 114.618 105.1 114.621 101.786 114.587C99.9997 114.567 99.0192 113.53 98.9957 111.73C98.9789 110.088 98.9957 108.453 98.9923 106.818ZM109.314 104.269C107.548 104.269 105.903 104.269 104.237 104.269C104.237 105.998 104.237 107.62 104.237 109.292C105.96 109.292 107.609 109.292 109.314 109.292C109.314 107.6 109.314 105.978 109.314 104.269Z" fill="white"/>
<path d="M57.2607 54.6847C57.2607 56.3636 57.2876 58.0425 57.254 59.718C57.2204 61.4473 56.2332 62.4579 54.5006 62.4747C51.1427 62.5083 47.7882 62.5083 44.4303 62.4747C42.7783 62.4579 41.7105 61.464 41.6802 59.8187C41.6198 56.3804 41.6198 52.9386 41.6836 49.4969C41.7138 47.855 42.7917 46.8946 44.4572 46.8812C47.8151 46.8577 51.1696 46.8544 54.5274 46.8812C56.2567 46.8946 57.2238 47.8919 57.2574 49.648C57.2876 51.3303 57.2607 53.0092 57.2607 54.6847ZM46.9622 52.163C46.9622 53.8721 46.9622 55.5174 46.9622 57.1627C48.6948 57.1627 50.3435 57.1627 52.0325 57.1627C52.0325 55.4603 52.0325 53.8486 52.0325 52.163C50.31 52.163 48.6612 52.163 46.9622 52.163Z" fill="white"/>
<path d="M67.7441 54.6176C67.7441 52.9387 67.7173 51.2598 67.7508 49.5843C67.7878 47.9087 68.7582 46.9047 70.4203 46.888C73.8185 46.8544 77.2167 46.8577 80.6148 46.888C82.2132 46.9014 83.2843 47.855 83.3145 49.4399C83.3817 52.9219 83.3817 56.4039 83.3145 59.8859C83.2843 61.4674 82.2132 62.4546 80.6316 62.4748C77.2335 62.5151 73.8353 62.5151 70.4371 62.4748C68.7783 62.4546 67.7878 61.4305 67.7508 59.7818C67.7139 58.0593 67.7441 56.3401 67.7441 54.6176ZM78.0561 57.2064C78.0561 55.4469 78.0561 53.8352 78.0561 52.1664C76.3369 52.1664 74.6882 52.1664 72.9992 52.1664C72.9992 53.8856 72.9992 55.5275 72.9992 57.2064C74.7218 57.2064 76.3436 57.2064 78.0561 57.2064Z" fill="white"/>
<path d="M49.5276 67.7431C51.2065 67.7431 52.8854 67.7196 54.561 67.7498C56.2668 67.78 57.2305 68.7034 57.2473 70.4024C57.2842 73.8005 57.2809 77.1986 57.2506 80.5967C57.2372 82.2554 56.2567 83.2896 54.5912 83.3165C51.1931 83.3702 47.7949 83.3668 44.3967 83.3198C42.7379 83.2963 41.7037 82.2856 41.6769 80.6336C41.6198 77.2355 41.6231 73.8375 41.6735 70.4394C41.7004 68.7135 42.748 67.7901 44.4908 67.7431C44.5747 67.7397 44.6586 67.7431 44.7426 67.7431C46.3376 67.7397 47.9326 67.7397 49.5276 67.7431ZM51.9956 78.0683C51.9956 76.2685 51.9956 74.6198 51.9956 72.9946C50.2327 72.9946 48.5873 72.9946 46.9756 72.9946C46.9756 74.7575 46.9756 76.4129 46.9756 78.0683C48.6948 78.0683 50.32 78.0683 51.9956 78.0683Z" fill="white"/>
<path d="M75.5779 67.7431C77.2132 67.7431 78.8518 67.7264 80.4871 67.7465C82.2567 67.77 83.301 68.6833 83.3279 70.4059C83.385 73.8039 83.385 77.202 83.3279 80.6001C83.301 82.3125 82.25 83.3031 80.5106 83.3232C77.1964 83.3635 73.8822 83.3602 70.568 83.3232C68.7413 83.3031 67.7642 82.3058 67.7507 80.4993C67.7239 77.1852 67.7239 73.8711 67.7507 70.557C67.7642 68.7035 68.7044 67.7734 70.5445 67.7465C72.2201 67.723 73.899 67.7431 75.5779 67.7431ZM72.9655 78.0549C74.6881 78.0549 76.3435 78.0549 78.0594 78.0549C78.0594 76.3458 78.0594 74.6904 78.0594 73.0081C76.3234 73.0081 74.6444 73.0081 72.9655 73.0081C72.9655 74.7508 72.9655 76.3693 72.9655 78.0549Z" fill="white"/>
</svg>
