<svg width="125" height="125" viewBox="0 0 125 125" fill="none" xmlns="http://www.w3.org/2000/svg">
<path d="M121.23 96.199C125.327 96.3492 124.971 96.4114 124.99 100.253C124.997 102.128 125.012 104.007 124.982 105.882C124.961 107.409 124.521 107.833 122.998 107.837C119.432 107.852 115.866 107.841 112.63 107.841C111.48 110.137 110.433 112.232 109.375 114.352C109.481 114.359 109.858 114.418 110.235 114.418C114.398 114.425 118.565 114.418 122.727 114.425C124.558 114.429 124.979 114.85 124.986 116.699C124.997 118.805 125.008 120.911 124.982 123.016C124.961 124.533 124.514 124.946 122.987 124.994C122.669 125.005 122.346 124.998 122.028 124.998C82.3523 124.998 42.6766 124.998 3.0009 124.998C2.59085 124.998 2.17714 124.994 1.7671 124.994C0.573567 124.987 0.0134128 124.353 0.0097517 123.192C0.00609057 120.951 -0.0122115 118.706 0.0134164 116.465C0.0280609 114.905 0.511331 114.44 2.0966 114.433C6.16778 114.422 10.2426 114.429 14.3138 114.429C14.8154 114.429 15.3133 114.429 15.6757 114.429C14.6067 112.32 13.5376 110.203 12.3441 107.852C9.24679 107.852 5.77604 107.855 2.30528 107.852C0.3539 107.848 0.0134148 107.504 0.00609258 105.515C-0.00122968 103.318 0.00243145 101.121 0.00609258 98.9236C0.00975371 96.6019 0.298982 96.3126 2.59085 96.2942C2.90937 96.2906 3.22789 96.2942 3.76608 96.2942C3.76608 95.7193 3.76608 95.192 3.76608 94.6646C3.76608 79.9247 3.76608 65.1848 3.76608 50.4486C3.76608 48.3209 4.12486 47.9547 6.21171 47.9547C31.565 47.9547 56.9147 47.9327 82.2681 47.962C100.998 47.984 116.221 60.0908 120.267 78.2511C120.886 81.0343 121.054 83.942 121.201 86.8021C121.351 89.8929 121.23 93.002 121.23 96.199ZM45.7336 87.9007C70.0033 87.9007 94.0862 87.9007 118.092 87.9007C118.092 86.0807 118.092 84.3668 118.092 82.5614C117.378 82.5614 116.833 82.5614 116.287 82.5614C107.318 82.5614 98.3514 82.5431 89.3816 82.5687C86.5333 82.5761 84.3659 81.3566 82.7184 79.1264C81.3491 77.2734 80.6169 75.1677 80.5949 72.8642C80.5546 68.9275 80.5693 64.9907 80.562 61.0576C80.562 60.5706 80.562 60.0835 80.562 59.5525C55.875 59.5525 31.3747 59.5525 6.84875 59.5525C6.84875 69.0593 6.84875 78.4928 6.84875 87.93C11.9817 87.93 16.9974 87.93 22.1742 87.93C22.1742 87.3697 22.1742 86.8827 22.1742 86.392C22.1742 79.8918 22.1706 73.3915 22.1779 66.895C22.1816 65.2873 22.6429 64.771 24.1659 64.7673C30.7083 64.7527 37.2544 64.749 43.7969 64.7673C45.2577 64.771 45.7263 65.2873 45.73 66.7998C45.7446 70.5974 45.7336 74.3986 45.7336 78.1962C45.7336 81.3969 45.7336 84.5939 45.7336 87.9007ZM117.484 79.6427C117.484 79.3131 117.499 79.1776 117.481 79.0495C117.444 78.7785 117.411 78.5038 117.345 78.2365C115.61 71.1064 112.051 65.042 106.607 60.1201C106.164 59.721 105.395 59.5122 104.777 59.5086C98.1464 59.4646 91.5124 59.4793 84.8821 59.4866C84.4428 59.4866 84.0034 59.5342 83.4506 59.5672C83.4506 61.1748 83.4323 62.6763 83.4543 64.1777C83.5019 67.4223 83.3737 70.6853 83.6813 73.9079C84.0437 77.6945 86.4601 79.6427 90.22 79.6427C98.7724 79.6464 107.325 79.6427 115.881 79.6427C116.371 79.6427 116.869 79.6427 117.484 79.6427ZM42.6693 96.2356C42.6693 86.6593 42.6693 77.2221 42.6693 67.8032C36.7822 67.8032 31.0012 67.8032 25.2386 67.8032C25.2386 77.3356 25.2386 86.7728 25.2386 96.2356C31.0854 96.2356 36.8334 96.2356 42.6693 96.2356ZM118.209 90.9879C94.0606 90.9879 69.9703 90.9879 45.8178 90.9879C45.8178 92.7603 45.8178 94.4669 45.8178 96.199C69.9886 96.199 94.0752 96.199 118.209 96.199C118.209 94.4339 118.209 92.753 118.209 90.9879ZM90.0626 107.892C71.7789 107.892 53.2097 107.892 34.9443 107.892C33.802 110.166 32.7329 112.287 31.7188 114.308C52.1845 114.308 72.859 114.308 93.2515 114.308C92.219 112.235 91.1793 110.141 90.0626 107.892ZM22.1193 90.9952C16.9132 90.9952 11.8718 90.9952 6.8341 90.9952C6.8341 92.7969 6.8341 94.5035 6.8341 96.199C11.9817 96.199 17.023 96.199 22.1193 96.199C22.1193 94.4412 22.1193 92.7676 22.1193 90.9952ZM31.3893 107.951C26.1649 107.951 21.0356 107.951 15.8881 107.951C16.6825 111.99 20.0069 114.568 24.111 114.414C27.7318 114.282 31.0195 111.382 31.3893 107.951ZM93.6249 107.91C93.8189 111.221 97.2055 114.26 100.83 114.414C104.993 114.59 108.544 111.814 109.075 107.91C103.92 107.91 98.7724 107.91 93.6249 107.91Z" fill="white"/>
<path d="M84.1216 29.4424C84.5463 28.8858 84.8795 28.4683 85.1943 28.0399C89.573 22.1182 93.9481 16.1966 98.3305 10.275C99.5972 8.5611 100.454 8.55744 101.677 10.2676C109.204 20.7999 116.731 31.3284 124.233 41.879C124.581 42.3697 124.888 43.0289 124.863 43.5965C124.848 43.992 124.237 44.6805 123.893 44.6805C123.31 44.6768 122.527 44.3912 122.186 43.9517C120.488 41.7398 118.946 39.407 117.248 37.1951C116.794 36.6019 116.047 36.0892 115.336 35.8658C112.722 35.0528 110.057 34.4009 107.425 33.6429C106.722 33.4415 106.253 33.5037 105.792 34.1336C105.118 35.0565 104.331 35.8914 103.603 36.774C102.969 37.5357 102.197 37.9166 101.351 37.2464C100.425 36.5103 100.699 35.6607 101.38 34.8624C102.42 33.6429 103.478 32.438 104.459 31.1746C105.129 30.314 105.909 30.1822 106.887 30.4568C109.076 31.0757 111.273 31.6653 113.861 32.3721C111.675 29.3069 109.706 26.5494 107.663 23.6856C106.012 24.44 104.408 25.1797 102.797 25.9048C101.358 26.5494 100.791 26.3223 100.11 24.8611C99.784 24.158 99.4654 23.4549 99.07 22.587C97.6898 23.2645 96.3608 23.92 95.0281 24.5755C94.6181 24.7769 94.2227 25.0296 93.7907 25.1651C90.1222 26.3187 87.7828 28.992 85.868 32.1231C85.6447 32.4857 85.652 33.0276 85.6666 33.4854C85.6739 33.7857 85.8863 34.0787 85.9998 34.379C86.3366 35.2762 86.3879 36.1771 85.3664 36.5945C84.3157 37.023 83.653 36.4554 83.2649 35.4483C81.7492 31.5262 80.2152 27.615 78.6812 23.7039C78.1357 22.3087 77.5755 20.9207 77.03 19.5511C76.0232 20.5179 75.0347 21.4004 74.145 22.3709C73.9364 22.598 73.9254 23.2095 74.0755 23.5171C74.5331 24.4583 75.1116 25.3445 75.6534 26.2454C76.1733 27.1097 76.1221 27.886 75.3276 28.5672C73.7972 29.8782 72.2742 31.1929 70.7512 32.5076C69.9823 33.1705 69.1549 33.3243 68.474 32.4783C67.793 31.636 68.1481 30.8633 68.906 30.2188C70.1581 29.1568 71.3992 28.0801 72.6733 26.9852C72.0765 25.9634 71.5786 24.982 70.9635 24.0848C70.1361 22.8836 70.3192 21.9315 71.3553 20.9537C72.5854 19.7928 73.7167 18.5294 74.8883 17.3062C75.8585 16.2955 75.8548 16.2955 75.0933 14.8563C73.5446 15.4239 71.974 15.9988 70.4034 16.5775C68.3092 17.3465 68.236 17.3245 66.9363 15.4715C66.8081 15.2884 66.6507 15.1236 66.4457 14.8746C62.3306 17.0023 58.2301 19.108 54.1516 21.2503C53.7233 21.4774 53.3901 21.8985 53.0386 22.2574C46.0166 29.3399 38.9945 36.4297 31.9761 43.5159C31.6869 43.8089 31.4013 44.1092 31.0975 44.3838C30.4677 44.9588 29.7648 45.0394 29.1314 44.4571C28.4468 43.8345 28.4578 43.0655 29.0399 42.377C29.5708 41.7508 30.1712 41.1795 30.7606 40.6045C33.5834 37.8616 36.4098 35.1297 39.3204 32.3099C37.2665 29.5303 35.381 26.9742 33.393 24.2825C32.6937 25.1981 32.1043 25.9927 31.4929 26.7691C30.6105 27.8897 29.8161 28.0728 28.8715 27.0804C27.7841 25.9415 26.7151 25.751 25.3605 26.4468C24.8809 26.6959 24.3207 26.7874 23.8008 26.9632C22.8563 27.2855 22.1277 27.0547 21.5346 26.2234C20.5827 24.8904 19.5832 23.5977 18.4336 22.0633C18.2066 22.6236 17.965 22.9642 17.9467 23.3121C17.8661 25.004 17.8112 26.6995 17.8442 28.3878C17.8515 28.7064 18.2359 29.1714 18.5544 29.2996C19.4404 29.6585 20.3777 29.8892 21.3003 30.1456C22.3217 30.4312 22.8526 31.0245 22.7171 32.1414C22.4901 34.0494 22.3181 35.961 22.0801 37.869C21.9629 38.7955 21.4321 39.4473 20.4326 39.3155C19.466 39.1873 19.0523 38.4915 19.1548 37.5247C19.3196 35.983 19.5027 34.4412 19.693 32.7603C18.7118 32.46 17.7673 32.167 16.8227 31.8777C15.0068 31.3174 14.8567 31.105 14.9006 29.1421C14.9116 28.6478 14.9006 28.1534 14.9006 27.2928C14.443 27.8567 14.1647 28.1717 13.9231 28.5086C10.3535 33.4927 6.7912 38.4769 3.22526 43.461C3.01291 43.7576 2.81155 44.0726 2.55893 44.3326C1.96217 44.9515 1.16038 45.0943 0.629514 44.4644C0.274384 44.0433 0.274388 43.2559 0.278049 42.6334C0.28171 42.3294 0.655145 42.0291 0.867491 41.7325C8.31057 31.3101 15.7573 20.8914 23.2041 10.4691C24.6026 8.50983 25.3678 8.49884 26.792 10.4251C31.3061 16.5298 35.8167 22.6382 40.3308 28.7466C40.6018 29.1128 40.8873 29.4644 41.561 30.3287C41.8648 29.7684 42.0186 29.2374 42.3628 28.8931C51.4936 19.6426 60.6428 10.4141 69.7883 1.18195C69.9164 1.05011 70.0409 0.918279 70.1727 0.790105C71.4358 -0.425715 72.4463 -0.246271 73.0906 1.38337C74.8919 5.92804 76.6566 10.4874 78.4322 15.0394C80.1127 19.3387 81.7895 23.6343 83.4699 27.9336C83.6347 28.3731 83.8434 28.8089 84.1216 29.4424Z" fill="white"/>
<path d="M63.0442 82.0633C60.302 82.0633 57.5598 82.0743 54.8213 82.0597C53.1738 82.0523 52.7381 81.6605 52.7344 80.0711C52.7161 75.1821 52.7161 70.2894 52.7344 65.4004C52.7381 63.8256 53.2177 63.3605 54.792 63.3569C60.3679 63.3459 65.9401 63.3459 71.516 63.3569C73.0244 63.3605 73.5077 63.833 73.5114 65.3052C73.5223 70.2418 73.5223 75.1784 73.5114 80.1114C73.5077 81.6568 73.1086 82.0487 71.5453 82.056C68.7116 82.0743 65.8779 82.0597 63.0442 82.0633Z" fill="white"/>
<path d="M105.598 75.1197C105.195 75.5592 104.91 76.1488 104.496 76.2586C104.017 76.3868 103.277 76.266 102.911 75.951C101.739 74.9439 100.685 73.7977 99.5903 72.6991C98.1075 71.2159 96.6284 69.7291 95.142 68.2496C94.4025 67.5135 94.073 66.6895 94.937 65.8839C95.7388 65.1368 96.5186 65.4847 97.2105 66.1768C99.7221 68.6964 102.248 71.2013 104.742 73.7354C105.067 74.065 105.247 74.5448 105.598 75.1197Z" fill="white"/>
<path d="M108.387 68.8761C108.102 69.213 107.838 69.7879 107.414 69.9564C106.993 70.1212 106.231 70.0699 105.923 69.7843C104.247 68.2315 102.607 66.6275 101.094 64.9173C100.791 64.5767 100.856 63.4781 101.179 63.1339C101.508 62.7823 102.636 62.6322 102.951 62.9141C104.723 64.4925 106.359 66.221 108.021 67.9202C108.197 68.0997 108.219 68.422 108.387 68.8761Z" fill="white"/>
</svg>
