<svg width="125" height="125" viewBox="0 0 125 125" fill="none" xmlns="http://www.w3.org/2000/svg">
<path d="M121.93 57.2169C109.032 51.906 96.1505 46.5513 83.2625 41.2134C79.838 39.7962 77.4477 41.4968 77.4477 45.3399C77.4445 62.3355 77.4477 79.3311 77.4477 96.33V97.5515H84.9893V96.2794C84.9893 92.6522 85.0153 89.025 84.9731 85.3978C84.9633 84.5374 85.1877 84.0751 85.978 83.6702C97.8448 77.5968 109.682 71.4659 121.549 65.3925C123.006 64.6468 124.281 63.8067 125 62.2478V60.2233C124.392 58.7657 123.383 57.8142 121.93 57.2169ZM87.7634 73.3656V52.8204L110.125 60.6147L87.7634 73.3656Z" fill="white"/>
<path d="M46.3391 24.0016C46.2773 28.9312 45.048 33.51 42.6252 37.7277C36.7812 47.8974 30.9209 58.057 25.0541 68.2098C23.8801 70.2411 22.1695 70.2141 20.9988 68.1558C15.2621 58.0671 9.43106 48.0357 3.84071 37.8593C-1.10897 28.8469 -1.51548 19.6422 4.03584 10.7074C9.22293 2.35977 19.054 -1.60824 28.2639 0.605209C37.6625 2.86589 44.661 10.6906 46.0171 20.479C46.1797 21.6464 46.235 22.8274 46.3391 24.0016ZM22.8947 36.8065C29.3794 36.9314 34.7811 31.4855 34.947 24.6629C35.1063 18.0159 29.8119 12.2697 23.402 12.1347C16.6865 11.993 11.2132 17.3984 11.1156 24.2614C11.0181 31.0907 16.2637 36.6783 22.8947 36.8065Z" fill="white"/>
<path d="M29.5551 75.6535C31.0478 73.0588 32.4006 70.6699 33.812 68.3182C33.9747 68.0449 34.4657 67.8491 34.8039 67.8491C39.7211 67.8255 44.6415 67.7344 49.5554 67.8728C57.2206 68.0887 63.1654 74.6818 63.0776 82.6785C62.9931 90.4694 56.8791 96.887 49.2822 96.941C37.9845 97.022 26.6867 96.9545 15.3857 96.9714C11.6361 96.9781 8.69291 99.2962 7.91891 102.782C6.86523 107.526 10.1921 112.01 14.8849 112.081C18.8654 112.142 22.8493 112.094 26.8331 112.094C38.8235 112.094 50.8107 112.094 62.8012 112.094C63.276 112.094 63.754 112.094 64.1248 112.094C64.2581 114.74 64.3849 117.243 64.5183 119.862C64.3036 119.872 63.9199 119.912 63.5362 119.912C47.4025 119.916 31.2657 119.926 15.132 119.909C7.25548 119.902 1.02773 113.933 0.211458 105.68C-0.523515 98.2401 4.70259 91.0903 12.0978 89.4977C13.2816 89.2446 14.5174 89.1737 15.7304 89.1704C26.6217 89.1468 37.5162 89.1366 48.4074 89.1704C50.9018 89.1771 52.9799 88.3977 54.4043 86.2281C55.8222 84.072 55.9848 81.7236 54.8563 79.3921C53.7051 77.0133 51.7636 75.6974 49.1912 75.6738C43.1781 75.6164 37.1617 75.6502 31.1453 75.6502C30.6998 75.6535 30.2543 75.6535 29.5551 75.6535Z" fill="white"/>
<path d="M71.7413 115.063C71.7673 109.583 76.0113 105.221 81.3025 105.238C86.5644 105.254 90.8408 109.718 90.8051 115.151C90.7693 120.59 86.457 125.017 81.2147 125C75.9658 124.983 71.7153 120.526 71.7413 115.063Z" fill="white"/>
<path d="M23.0076 19.9461C25.4565 19.936 27.4435 21.9908 27.4175 24.5079C27.3915 26.9575 25.4077 29.0056 23.0467 29.0191C20.6271 29.0326 18.6401 26.9508 18.6563 24.4236C18.6726 21.9335 20.5946 19.9562 23.0076 19.9461Z" fill="white"/>
</svg>
