<svg width="24" height="24" viewBox="0 0 24 24" fill="none" xmlns="http://www.w3.org/2000/svg">
<rect width="24" height="24" rx="12" fill="white"/>
<path fill-rule="evenodd" clip-rule="evenodd" d="M8.97663 4.71075C9.75863 4.67475 10.008 4.66675 12 4.66675C13.992 4.66675 14.2413 4.67541 15.0226 4.71075C15.804 4.74608 16.3373 4.87075 16.804 5.05141C17.2926 5.23608 17.736 5.52475 18.1026 5.89808C18.476 6.26408 18.764 6.70675 18.948 7.19608C19.1293 7.66275 19.2533 8.19608 19.2893 8.97608C19.3253 9.75941 19.3333 10.0087 19.3333 12.0001C19.3333 13.9921 19.3246 14.2414 19.2893 15.0234C19.254 15.8034 19.1293 16.3367 18.948 16.8034C18.764 17.2928 18.4755 17.7362 18.1026 18.1027C17.736 18.4761 17.2926 18.7641 16.804 18.9481C16.3373 19.1294 15.804 19.2534 15.024 19.2894C14.2413 19.3254 13.992 19.3334 12 19.3334C10.008 19.3334 9.75863 19.3247 8.97663 19.2894C8.19663 19.2541 7.66329 19.1294 7.19663 18.9481C6.70724 18.7641 6.26384 18.4756 5.89729 18.1027C5.52421 17.7365 5.2355 17.2933 5.05129 16.8041C4.87063 16.3374 4.74663 15.8041 4.71063 15.0241C4.67463 14.2407 4.66663 13.9914 4.66663 12.0001C4.66663 10.0081 4.67529 9.75875 4.71063 8.97741C4.74596 8.19608 4.87063 7.66275 5.05129 7.19608C5.23577 6.7068 5.5247 6.26362 5.89796 5.89741C6.26399 5.52442 6.70694 5.23571 7.19596 5.05141C7.66263 4.87075 8.19596 4.74675 8.97596 4.71075H8.97663ZM14.9633 6.03075C14.19 5.99541 13.958 5.98808 12 5.98808C10.042 5.98808 9.80996 5.99541 9.03663 6.03075C8.32129 6.06341 7.93329 6.18275 7.67463 6.28341C7.33263 6.41675 7.08796 6.57475 6.83129 6.83141C6.58799 7.06812 6.40075 7.35627 6.28329 7.67475C6.18263 7.93341 6.06329 8.32141 6.03063 9.03675C5.99529 9.81008 5.98796 10.0421 5.98796 12.0001C5.98796 13.9581 5.99529 14.1901 6.03063 14.9634C6.06329 15.6787 6.18263 16.0667 6.28329 16.3254C6.40063 16.6434 6.58796 16.9321 6.83129 17.1687C7.06796 17.4121 7.35663 17.5994 7.67463 17.7167C7.93329 17.8174 8.32129 17.9367 9.03663 17.9694C9.80996 18.0047 10.0413 18.0121 12 18.0121C13.9586 18.0121 14.19 18.0047 14.9633 17.9694C15.6786 17.9367 16.0666 17.8174 16.3253 17.7167C16.6673 17.5834 16.912 17.4254 17.1686 17.1687C17.412 16.9321 17.5993 16.6434 17.7166 16.3254C17.8173 16.0667 17.9366 15.6787 17.9693 14.9634C18.0046 14.1901 18.012 13.9581 18.012 12.0001C18.012 10.0421 18.0046 9.81008 17.9693 9.03675C17.9366 8.32141 17.8173 7.93341 17.7166 7.67475C17.5833 7.33275 17.4253 7.08808 17.1686 6.83141C16.9319 6.58813 16.6438 6.40089 16.3253 6.28341C16.0666 6.18275 15.6786 6.06341 14.9633 6.03075ZM11.0633 14.2607C11.5864 14.4785 12.1689 14.5079 12.7112 14.3439C13.2536 14.1799 13.7222 13.8327 14.037 13.3616C14.3518 12.8905 14.4933 12.3247 14.4373 11.7608C14.3813 11.197 14.1313 10.6701 13.73 10.2701C13.4741 10.0144 13.1648 9.81862 12.8242 9.69685C12.4836 9.57507 12.1202 9.53032 11.7603 9.56582C11.4003 9.60133 11.0527 9.7162 10.7425 9.90217C10.4323 10.0881 10.1671 10.3406 9.96616 10.6413C9.7652 10.9421 9.63342 11.2836 9.5803 11.6414C9.52719 11.9992 9.55406 12.3643 9.65899 12.7104C9.76391 13.0566 9.94428 13.3752 10.1871 13.6432C10.4299 13.9113 10.7292 14.1222 11.0633 14.2607ZM9.33463 9.33475C9.68464 8.98473 10.1002 8.70708 10.5575 8.51766C11.0148 8.32823 11.505 8.23073 12 8.23073C12.495 8.23073 12.9851 8.32823 13.4424 8.51765C13.8997 8.70708 14.3153 8.98473 14.6653 9.33475C15.0153 9.68476 15.293 10.1003 15.4824 10.5576C15.6718 11.0149 15.7693 11.5051 15.7693 12.0001C15.7693 12.4951 15.6718 12.9852 15.4824 13.4425C15.293 13.8999 15.0153 14.3154 14.6653 14.6654C13.9584 15.3723 12.9997 15.7694 12 15.7694C11.0003 15.7694 10.0415 15.3723 9.33463 14.6654C8.62773 13.9585 8.23061 12.9998 8.23061 12.0001C8.23061 11.0004 8.62773 10.0416 9.33463 9.33475ZM16.6053 8.79208C16.692 8.71026 16.7615 8.61187 16.8095 8.50273C16.8575 8.39359 16.8832 8.27593 16.8849 8.1567C16.8866 8.03748 16.8644 7.91911 16.8196 7.80862C16.7748 7.69813 16.7082 7.59775 16.6239 7.51344C16.5396 7.42913 16.4392 7.36259 16.3288 7.31776C16.2183 7.27293 16.0999 7.25073 15.9807 7.25247C15.8614 7.25421 15.7438 7.27985 15.6346 7.32788C15.5255 7.37591 15.4271 7.44534 15.3453 7.53208C15.1862 7.70077 15.099 7.92483 15.1024 8.1567C15.1058 8.38857 15.1994 8.61 15.3634 8.77398C15.5274 8.93795 15.7488 9.03157 15.9807 9.03495C16.2125 9.03833 16.4366 8.95121 16.6053 8.79208Z" fill="#14213D"/>
</svg>
