<svg width="80" height="63" viewBox="0 0 80 63" fill="none" xmlns="http://www.w3.org/2000/svg">
<path d="M72.5421 2.99144e-05L76.7421 7.40004C73.4755 8.93337 70.3421 11.1 67.3421 13.9C64.3421 16.6334 61.8755 19.5334 59.9421 22.6C57.9421 25.6 56.8755 28.3 56.7421 30.7C58.7421 29.7667 61.0421 29.3 63.6421 29.3C67.7088 29.3 71.3755 30.6667 74.6421 33.4C77.8421 36.2 79.4421 40.1667 79.4421 45.3C79.4421 50.2334 77.7755 54.2667 74.4421 57.4C71.1088 60.5334 66.8755 62.1 61.7421 62.1C56.0088 62.1 51.4088 60.1334 47.9421 56.2C44.4755 52.2667 42.7421 47.2667 42.7421 41.2C42.7421 35 44.2088 29.2 47.1421 23.8C50.0088 18.3334 53.7421 13.5667 58.3421 9.50003C62.8755 5.36669 67.6088 2.20003 72.5421 2.99144e-05Z" fill="#FFC800" fill-opacity="0.3"/>
<path d="M29.8 2.61777e-05L34 7.40004C30.7333 8.93337 27.6 11.1 24.6 13.9C21.6 16.6334 19.1333 19.5334 17.2 22.6C15.2 25.6 14.1333 28.3 14 30.7C16 29.7667 18.3 29.3 20.9 29.3C24.9666 29.3 28.6333 30.6667 31.9 33.4C35.1 36.2 36.7 40.1667 36.7 45.3C36.7 50.2334 35.0333 54.2667 31.7 57.4C28.3666 60.5334 24.1333 62.1 19 62.1C13.2666 62.1 8.66662 60.1334 5.19995 56.2C1.73328 52.2667 -5.2109e-05 47.2667 -5.15786e-05 41.2C-5.10366e-05 35 1.46662 29.2 4.39996 23.8C7.26663 18.3334 11 13.5667 15.6 9.50002C20.1333 5.36669 24.8666 2.20003 29.8 2.61777e-05Z" fill="#FFC800" fill-opacity="0.3"/>
</svg>
