<svg width="24" height="24" viewBox="0 0 24 24" fill="none" xmlns="http://www.w3.org/2000/svg">
<rect width="24" height="24" rx="12" fill="white"/>
<path d="M19.9957 6.54204C19.4076 6.80262 18.7759 6.97869 18.1117 7.05828C18.797 6.64824 19.3097 6.00289 19.5541 5.24264C18.9103 5.62506 18.2057 5.89424 17.4708 6.03848C16.9767 5.51087 16.3222 5.16117 15.6089 5.04366C14.8957 4.92615 14.1636 5.04741 13.5263 5.3886C12.8891 5.7298 12.3822 6.27185 12.0846 6.93059C11.787 7.58934 11.7151 8.32792 11.8803 9.03167C10.5757 8.96617 9.2995 8.6271 8.13448 8.03646C6.96945 7.44581 5.94164 6.6168 5.11774 5.60323C4.83603 6.08918 4.67404 6.65261 4.67404 7.25266C4.67373 7.79284 4.80675 8.32474 5.06131 8.80118C5.31587 9.27762 5.6841 9.68386 6.13332 9.98386C5.61234 9.96728 5.10286 9.82651 4.64728 9.57327V9.61552C4.64723 10.3731 4.9093 11.1075 5.38902 11.6939C5.86874 12.2803 6.53657 12.6826 7.27918 12.8327C6.79589 12.9635 6.2892 12.9827 5.79737 12.889C6.0069 13.5409 6.41503 14.111 6.96463 14.5194C7.51423 14.9278 8.17779 15.1541 8.86241 15.1667C7.70022 16.079 6.26494 16.5739 4.78743 16.5717C4.52571 16.5718 4.26421 16.5565 4.00427 16.5259C5.50402 17.4902 7.24984 18.002 9.03284 18C15.0685 18 18.3681 13.001 18.3681 8.66545C18.3681 8.52459 18.3646 8.38232 18.3582 8.24147C19 7.77733 19.554 7.20258 19.9943 6.54415L19.9957 6.54204Z" fill="#14213D"/>
</svg>
