<svg width="125" height="125" fill="none" xmlns="http://www.w3.org/2000/svg"><path d="M121.93 57.217c-12.898-5.311-25.78-10.666-38.668-16.004-3.424-1.417-5.814.284-5.814 4.127-.003 16.995 0 33.991 0 50.99v1.222h7.541v-1.273c0-3.627.026-7.254-.016-10.881-.01-.86.215-1.323 1.005-1.728 11.867-6.073 23.704-12.204 35.571-18.278 1.457-.745 2.732-1.585 3.451-3.144v-2.025c-.608-1.457-1.617-2.409-3.07-3.006zM87.763 73.366V52.82l22.362 7.795-22.362 12.75zM46.34 24.002c-.063 4.93-1.292 9.508-3.715 13.726-5.844 10.17-11.704 20.329-17.57 30.482-1.175 2.031-2.886 2.004-4.056-.054C15.262 58.067 9.43 48.036 3.84 37.859c-4.95-9.012-5.356-18.217.195-27.152C9.223 2.36 19.054-1.608 28.264.605c9.399 2.26 16.397 10.086 17.753 19.874.163 1.167.218 2.348.322 3.523zM22.894 36.807c6.484.124 11.886-5.322 12.052-12.144.16-6.647-5.135-12.393-11.545-12.528-6.716-.142-12.189 5.263-12.286 12.126-.098 6.83 5.148 12.417 11.779 12.546zM29.555 75.653c1.493-2.594 2.846-4.983 4.257-7.335.163-.273.654-.469.992-.469 4.917-.023 9.837-.115 14.751.024 7.666.216 13.61 6.809 13.523 14.805-.085 7.791-6.199 14.209-13.796 14.263-11.297.081-22.595.013-33.896.03-3.75.007-6.693 2.325-7.467 5.811-1.054 4.744 2.273 9.228 6.966 9.299 3.98.061 7.964.013 11.948.013h37.292l.393 7.768c-.214.01-.598.05-.982.05-16.133.004-32.27.014-48.404-.003-7.877-.007-14.104-5.976-14.92-14.229-.736-7.44 4.49-14.59 11.886-16.182 1.184-.253 2.42-.324 3.632-.328a6200.86 6200.86 0 0132.677 0c2.495.007 4.573-.772 5.997-2.942 1.418-2.156 1.58-4.504.452-6.836-1.15-2.379-3.092-3.695-5.665-3.718-6.013-.058-12.03-.024-18.046-.024-.445.003-.89.003-1.59.003zM71.741 115.063c.026-5.48 4.27-9.842 9.561-9.825 5.262.016 9.539 4.48 9.503 9.913-.036 5.439-4.348 9.866-9.59 9.849-5.25-.017-9.5-4.474-9.474-9.937z" fill="#fff"/><path d="M23.008 19.946c2.448-.01 4.436 2.045 4.41 4.562-.026 2.45-2.01 4.498-4.371 4.511-2.42.014-4.407-2.068-4.39-4.595.016-2.49 1.938-4.468 4.35-4.478z" fill="#fff"/></svg>