<svg width="125" height="125" fill="none" xmlns="http://www.w3.org/2000/svg"><path d="M0 51.024v-6.591c.408-2.476.62-5.005 1.257-7.42 5.005-18.94 17.01-30.92 36.003-35.797 2.341-.6 4.78-.82 7.173-1.216h6.591c.31.07.62.18.935.208 5.65.468 11.08 1.84 16.133 4.394 16.215 8.2 25.36 21.337 27.162 39.472.118 1.184.501 1.682 1.648 2.075 13.591 4.646 22.456 13.913 26.579 27.648.752 2.508 1.026 5.161 1.519 7.747v6.103c-.073.313-.181.623-.21.94-.53 5.532-2.148 10.727-4.868 15.564-.417.742-.461 1.379-.239 2.168 1.609 5.698 3.186 11.406 4.765 17.114.113.405.186.822.298 1.328-.305-.064-.461-.086-.613-.127-5.825-1.609-11.657-3.194-17.468-4.856-1.054-.3-1.85-.127-2.844.3-3.156 1.358-6.35 2.659-9.621 3.696-2.102.667-4.363.835-6.553 1.226h-6.103c-.313-.073-.62-.186-.938-.215-16.034-1.538-29.752-12.702-34.572-28.202-.276-.887-.659-1.202-1.57-1.263-7.245-.485-14.032-2.521-20.363-6.098-.39-.22-1.013-.234-1.467-.112-4.353 1.162-8.691 2.377-13.035 3.574-3.073.847-6.147 1.69-9.365 2.573.127-.557.198-.942.303-1.32 1.88-6.807 3.743-13.621 5.674-20.413.3-1.052.249-1.865-.303-2.842-2.212-3.908-3.82-8.07-4.717-12.48-.483-2.375-.8-4.785-1.191-7.178zM10.698 84.73c.374-.088.561-.125.745-.176 3.955-1.089 7.92-2.146 11.857-3.29.953-.28 1.663-.152 2.488.373 9.206 5.854 19.204 7.768 29.9 5.703 22.089-4.266 36.583-26.43 31.395-48.474-3.6-15.295-13.215-25.58-28.31-29.899-15.004-4.294-28.505-.65-39.63 10.325C5.513 32.739 3.49 53.356 13.838 69.706c.495.783.634 1.46.37 2.373-1.193 4.133-2.309 8.29-3.51 12.65zm84.454-31.477c-1.45 11.06-5.967 20.466-13.735 28.22-7.761 7.751-17.175 12.25-28.137 13.679.117.388.186.652.276.908 4.36 12.317 16.821 21.306 29.924 21.601 7.075.161 13.581-1.65 19.482-5.571.696-.461 1.308-.603 2.146-.342 2.285.711 4.607 1.309 6.916 1.941.711.195 1.433.354 2.271.559-.821-2.971-1.524-5.769-2.386-8.515-.388-1.238-.229-2.163.474-3.264 8.594-13.455 6.558-30.652-4.914-41.747-3.489-3.375-7.537-5.862-12.317-7.469z" fill="#fff"/><path d="M40.325 36.576h-7.16c-.144-2.5.486-4.782 1.684-6.872 3.072-5.357 7.769-8.091 13.923-7.652 6.04.433 10.4 3.66 12.573 9.341 2.21 5.776.99 11.055-3.254 15.537-1.672 1.767-3.528 3.376-5.386 4.956-.981.835-1.467 1.709-1.34 3.025.12 1.245.024 2.507.024 3.845h-7.326c0-1.167-.01-2.366.002-3.562.015-1.746-.441-3.706.206-5.178.646-1.472 2.397-2.463 3.674-3.652 1.667-1.553 3.39-3.045 5.005-4.651 2.19-2.183 2.695-5.481 1.381-8.235a7.38 7.38 0 00-7.268-4.155c-3.012.266-5.58 2.424-6.389 5.395-.156.576-.224 1.182-.349 1.858zM51.292 73.45h-7.124v-7.214h7.124v7.215z" fill="#fff"/></svg>