<svg width="125" height="125" fill="none" xmlns="http://www.w3.org/2000/svg"><path d="M121.23 96.199c4.097.15 3.741.212 3.76 4.054.007 1.875.022 3.754-.008 5.629-.021 1.527-.461 1.951-1.984 1.955-3.566.015-7.132.004-10.368.004-1.15 2.296-2.197 4.391-3.255 6.511.106.007.483.066.86.066 4.163.007 8.33 0 12.492.007 1.831.004 2.252.425 2.259 2.274.011 2.106.022 4.212-.004 6.317-.021 1.517-.468 1.93-1.995 1.978-.318.011-.641.004-.959.004H3.001c-.41 0-.824-.004-1.234-.004-1.193-.007-1.754-.641-1.757-1.802-.004-2.241-.022-4.486.003-6.727.015-1.56.498-2.025 2.084-2.032 4.07-.011 8.146-.004 12.217-.004h1.362c-1.07-2.109-2.138-4.226-3.332-6.577-3.097 0-6.568.003-10.039 0-1.951-.004-2.292-.348-2.299-2.337-.007-2.197-.004-4.394 0-6.591.004-2.322.293-2.611 2.585-2.63.318-.003.637 0 1.175 0v-1.63V50.45c0-2.128.359-2.494 2.446-2.494 25.353 0 50.703-.022 76.056.007 18.73.022 33.953 12.129 37.999 30.29.619 2.782.787 5.69.934 8.55.15 3.09.029 6.2.029 9.397zm-75.496-8.298h72.358v-5.34h-1.805c-8.969 0-17.936-.018-26.905.008-2.849.007-5.016-1.212-6.664-3.443-1.369-1.853-2.101-3.958-2.123-6.262-.04-3.937-.026-7.873-.033-11.806v-1.505H6.849V87.93h15.325v-1.538c0-6.5-.003-13 .004-19.497.004-1.608.465-2.124 1.988-2.128 6.542-.014 13.088-.018 19.63 0 1.462.004 1.93.52 1.934 2.033.015 3.797.004 7.599.004 11.396v9.705zm71.75-8.258c0-.33.015-.465-.003-.594-.037-.27-.07-.545-.136-.813-1.735-7.13-5.294-13.194-10.738-18.116-.443-.399-1.212-.608-1.83-.611-6.63-.044-13.265-.03-19.895-.022-.44 0-.879.047-1.431.08 0 1.608-.019 3.11.003 4.61.048 3.245-.08 6.508.227 9.73.363 3.788 2.78 5.736 6.539 5.736 8.552.003 17.105 0 25.661 0h1.603zM42.669 96.236V67.803H25.24v28.433h17.43zm75.54-5.248H45.818v5.211h72.391v-5.211zm-28.146 16.904H34.944c-1.142 2.274-2.211 4.395-3.225 6.416H93.25c-1.032-2.073-2.072-4.167-3.188-6.416zM22.119 90.995H6.834V96.2H22.12v-5.204zm9.27 16.956h-15.5c.794 4.039 4.118 6.617 8.222 6.463 3.62-.132 6.909-3.032 7.278-6.463zm62.236-.041c.194 3.311 3.58 6.35 7.205 6.504 4.163.176 7.714-2.6 8.245-6.504h-15.45zM84.122 29.442c.424-.556.757-.974 1.072-1.402 4.379-5.922 8.754-11.843 13.136-17.765 1.267-1.714 2.124-1.718 3.347-.007 7.527 10.532 15.054 21.06 22.556 31.611.348.49.655 1.15.63 1.718-.015.395-.626 1.084-.97 1.084-.583-.004-1.366-.29-1.707-.73-1.698-2.211-3.24-4.544-4.938-6.756-.454-.593-1.201-1.106-1.912-1.33-2.614-.812-5.279-1.464-7.911-2.222-.703-.202-1.172-.14-1.633.49-.674.923-1.461 1.758-2.189 2.641-.634.762-1.406 1.143-2.252.472-.926-.736-.652-1.585.029-2.384 1.04-1.22 2.098-2.424 3.079-3.687.67-.861 1.45-.993 2.428-.718 2.189.619 4.386 1.208 6.974 1.915l-6.198-8.686c-1.651.754-3.255 1.494-4.866 2.219-1.439.644-2.006.417-2.687-1.044-.326-.703-.645-1.406-1.04-2.274l-4.042 1.989c-.41.2-.805.454-1.237.59-3.669 1.153-6.008 3.826-7.923 6.957-.223.363-.216.905-.201 1.362.007.3.22.594.333.894.337.897.388 1.798-.634 2.215-1.05.429-1.713-.139-2.101-1.146a2517.25 2517.25 0 00-4.584-11.744c-.545-1.395-1.105-2.783-1.651-4.153-1.007.967-1.995 1.85-2.885 2.82-.209.227-.22.838-.07 1.146.458.941 1.037 1.828 1.578 2.728.52.865.47 1.641-.325 2.322a1592.81 1592.81 0 00-4.577 3.94c-.769.663-1.596.817-2.277-.029-.681-.842-.326-1.615.432-2.26 1.252-1.061 2.493-2.138 3.767-3.233-.597-1.022-1.094-2.003-1.71-2.9-.827-1.201-.644-2.154.392-3.131 1.23-1.161 2.362-2.425 3.533-3.648.97-1.01.967-1.01.205-2.45-1.548.568-3.119 1.143-4.69 1.722-2.094.768-2.167.747-3.467-1.106-.128-.184-.285-.348-.49-.597-4.115 2.127-8.216 4.233-12.294 6.375-.429.227-.762.648-1.113 1.007a57835.47 57835.47 0 00-21.063 21.259c-.29.293-.575.593-.878.868-.63.575-1.333.655-1.967.073-.684-.623-.673-1.392-.091-2.08.53-.626 1.131-1.198 1.72-1.773 2.823-2.742 5.65-5.474 8.56-8.294l-5.927-8.028c-.7.916-1.289 1.71-1.9 2.487-.883 1.12-1.677 1.304-2.621.311-1.088-1.138-2.157-1.329-3.512-.633-.48.249-1.04.34-1.56.516-.944.322-1.672.092-2.265-.74-.952-1.333-1.952-2.625-3.101-4.16-.227.56-.469.901-.487 1.25-.08 1.691-.136 3.387-.103 5.075.008.318.392.783.71.912.886.358 1.824.59 2.746.846 1.022.285 1.553.878 1.417 1.995-.227 1.908-.399 3.82-.637 5.728-.117.926-.648 1.578-1.647 1.447-.967-.129-1.38-.825-1.278-1.791.165-1.542.348-3.084.538-4.765-.981-.3-1.926-.593-2.87-.882-1.816-.56-1.966-.773-1.922-2.736.01-.494 0-.989 0-1.85-.458.565-.736.88-.978 1.217-3.57 4.984-7.132 9.968-10.698 14.952-.212.297-.413.612-.666.872-.597.619-1.399.761-1.93.131-.355-.42-.355-1.208-.351-1.83.004-.305.377-.605.59-.901C8.31 31.31 15.757 20.89 23.203 10.469c1.399-1.96 2.164-1.97 3.588-.044 4.514 6.105 9.025 12.213 13.539 18.322.27.366.556.717 1.23 1.582.304-.56.458-1.092.802-1.436 9.13-9.25 18.28-18.479 27.425-27.711.128-.132.253-.264.385-.392 1.263-1.216 2.273-1.036 2.918.593 1.8 4.545 3.566 9.104 5.341 13.656l5.038 12.895c.165.44.373.875.652 1.508z" fill="#fff"/><path d="M63.044 82.063c-2.742 0-5.484.011-8.223-.003-1.647-.008-2.083-.4-2.087-1.989-.018-4.889-.018-9.782 0-14.67.004-1.575.484-2.04 2.058-2.044 5.576-.011 11.148-.011 16.724 0 1.508.004 1.992.476 1.995 1.948.011 4.937.011 9.873 0 14.806-.003 1.546-.402 1.938-1.966 1.945-2.833.018-5.667.004-8.5.007zM105.598 75.12c-.403.44-.688 1.029-1.102 1.139-.479.128-1.219.007-1.585-.308-1.172-1.007-2.226-2.153-3.32-3.252-1.483-1.483-2.963-2.97-4.449-4.45-.74-.736-1.069-1.56-.205-2.365.802-.747 1.582-.4 2.273.293 2.512 2.52 5.038 5.024 7.532 7.558.325.33.505.81.856 1.385zM108.387 68.876c-.285.337-.549.912-.973 1.08-.421.165-1.183.114-1.491-.172-1.676-1.553-3.316-3.157-4.829-4.867-.303-.34-.238-1.439.085-1.783.329-.352 1.457-.502 1.772-.22 1.772 1.579 3.408 3.307 5.07 5.006.176.18.198.502.366.956z" fill="#fff"/></svg>