<svg width="125" height="125" fill="none" xmlns="http://www.w3.org/2000/svg"><path d="M5.258 72.887v46.828h26v-1.703-77.934c0-2.844.742-3.6 3.546-3.6h55.398c2.8 0 3.546.76 3.546 3.604v79.64h25.956v-46.77c-.45-.021-.893-.061-1.336-.061-5.162-.004-10.326-.004-15.487-.004-.336 0-.672.007-1.007-.003-1.804-.044-2.895-1.048-2.868-2.626.027-1.524 1.101-2.501 2.844-2.511 3.358-.017 6.716-.007 10.074-.007 2.642 0 5.288-.027 7.931.01 2.921.043 5.121 2.182 5.124 5.097.027 15.654.027 31.308.003 46.962-.003 2.982-2.192 5.09-5.194 5.181-.336.01-.672.007-1.007.007-37.521 0-75.042 0-112.56-.007-.752 0-1.527.017-2.253-.148-2.34-.53-3.932-2.552-3.949-5.036-.033-4.49-.013-8.983-.013-13.472 0-10.913-.003-21.822 0-32.735 0-3.885 1.991-5.86 5.896-5.86 5.625-.003 11.25-.006 16.87.007.538 0 1.108.014 1.609.185 1.145.393 1.79 1.622 1.588 2.834-.215 1.276-1.219 2.106-2.72 2.109-5.456.02-10.913.01-16.366.01-.497.003-.994.003-1.625.003zm44.213 46.865v-1.602-26.056c0-2.68.856-3.543 3.536-3.546 6.336-.007 12.672-.007 19.009 0 2.676.003 3.535.87 3.535 3.546.004 8.727 0 17.454 0 26.184v1.477h12.931V41.741H36.547v78.014c4.285-.003 8.502-.003 12.925-.003zm5.278-25.973v25.949h15.463V93.779H54.75zM62.405 0c2.183.024 3.76.98 4.751 2.837.77 1.44 1.4 2.959 2.21 4.372.262.457.856.897 1.37 1.007 1.43.313 2.894.454 4.348.652 2.213.299 3.885 1.346 4.62 3.526.746 2.209.152 4.12-1.504 5.728-1.084 1.05-2.216 2.058-3.22 3.183-.352.393-.58 1.098-.524 1.619.175 1.578.534 3.136.79 4.707.339 2.082-.293 3.838-1.978 5.114-1.68 1.27-3.55 1.447-5.45.53a77.97 77.97 0 01-4.453-2.33c-.62-.349-1.108-.339-1.722.01-1.347.766-2.734 1.461-4.11 2.173-1.958 1.01-3.899 1-5.685-.322-1.817-1.347-2.478-3.2-2.035-5.44.154-.78.138-1.615.41-2.347.832-2.236.211-3.905-1.693-5.272-.775-.554-1.417-1.31-2.068-2.018-2.814-3.042-1.38-7.756 2.666-8.653 1.672-.37 3.388-.547 5.09-.772.73-.094 1.192-.386 1.508-1.091a77.167 77.167 0 012.166-4.392C58.852 1 60.397.067 62.405 0zM50.451 14.113c1.592 1.659 3.045 3.216 4.557 4.72.873.87 1.245 1.814 1.014 3.056-.403 2.156-.726 4.329-1.115 6.696 1.984-1.028 3.804-1.88 5.53-2.895 1.424-.84 2.69-.85 4.117-.01 1.74 1.021 3.57 1.89 5.527 2.912-.38-2.34-.655-4.456-1.091-6.541-.296-1.414.184-2.401 1.151-3.362 1.481-1.464 2.875-3.015 4.356-4.58-1.384-.214-2.821-.634-4.251-.624-3.036.02-4.795-1.414-5.752-4.207-.46-1.34-1.236-2.57-1.975-4.057-1.094 2.186-2.075 4.077-2.992 6-.557 1.166-1.386 1.797-2.693 1.952-2.115.251-4.217.614-6.383.94zM18.155 28.92c.145-.876.407-2.112.517-3.357.04-.457-.164-1.041-.463-1.397-.672-.8-1.498-1.464-2.216-2.23-1.22-1.3-1.619-2.84-1.045-4.533.568-1.675 1.757-2.944 3.536-2.975 3.009-.05 4.789-1.333 5.783-4.18.577-1.655 2.108-2.431 3.915-2.441 1.8-.007 3.401.732 3.945 2.384.977 2.968 2.922 3.955 5.877 4.268 3.458.366 4.835 4.59 2.565 7.266-.729.86-1.652 1.558-2.367 2.427-.316.383-.5 1.011-.47 1.511.057.998.325 1.982.47 2.976.252 1.719-.31 3.166-1.666 4.227-1.4 1.095-2.992 1.28-4.62.567-1.034-.45-1.991-1.08-3.029-1.524-.386-.165-.964-.161-1.353.003-1.075.46-2.062 1.125-3.143 1.572-3.032 1.266-6.26-.937-6.236-4.564zm14.822-.95c-1.74-3.67-.648-6.45 2.636-8.495-1.864-.473-3.7-.487-4.9-1.37-1.195-.88-1.745-2.629-2.618-4.056-.454.91-.937 1.746-1.3 2.632-.554 1.35-1.511 2.045-2.955 2.176-.963.088-1.917.279-2.901.427 1.122 1.346 2.575 2.417 3.015 3.81.45 1.428-.094 3.167-.198 4.692 1.468-.588 2.969-1.666 4.46-1.656 1.494.007 2.981 1.102 4.76 1.84zM96.877 7.787c1.716.033 3.28.748 3.818 2.347 1.004 2.995 2.958 4.019 5.977 4.335 3.401.352 4.748 4.54 2.558 7.195-.292.356-.591.739-.97.98-2.025 1.28-2.223 3.046-1.612 5.182.581 2.025.114 3.851-1.659 5.144-1.729 1.26-3.646 1.239-5.278.013-2.183-1.638-3.98-1.057-6.091.168-3.127 1.813-6.793-.228-6.834-3.673-.013-1.199.229-2.425.514-3.596.212-.87-.03-1.414-.661-1.961-.699-.601-1.34-1.27-1.978-1.934-1.24-1.29-1.625-2.834-1.105-4.527.537-1.752 1.77-3.008 3.6-3.059 3.005-.08 4.768-1.38 5.748-4.234.561-1.662 2.146-2.377 3.973-2.38zm.14 6.097c-.1.06-.2.121-.301.178-.44.887-.917 1.76-1.306 2.67-.548 1.28-1.468 1.974-2.858 2.112-.977.097-1.944.282-3.449.507 3.684 2.162 4.503 5.026 3.076 8.764 3.086-2.582 6.054-2.603 9.036.02-.121-1.938-.665-3.69-.198-5.11.46-1.401 1.944-2.465 3.224-3.963-4.09.453-6.387-1.357-7.223-5.178z" fill="#fff"/><path d="M106.745 93.732c-1.635 0-3.273.02-4.909-.006-1.82-.027-2.824-1.001-2.834-2.8-.023-3.359-.027-6.716.004-10.074.013-1.649 1.02-2.7 2.659-2.72 3.398-.04 6.8-.037 10.198-.003 1.702.017 2.723 1.074 2.733 2.79.024 3.314.03 6.632-.003 9.946-.02 1.853-1.061 2.82-2.935 2.864h-.124c-1.599.003-3.194.003-4.789.003zm-2.505-5.308h5.031v-5.017h-5.031v5.017zM26.01 85.963c0 1.635.016 3.273-.004 4.909-.024 1.816-.997 2.837-2.784 2.854-3.358.027-6.712.03-10.07-.004-1.642-.016-2.71-1.027-2.733-2.662-.047-3.439-.05-6.88.003-10.322.027-1.565 1.098-2.582 2.67-2.603a423.32 423.32 0 0110.322.004c1.561.02 2.552 1.084 2.585 2.663.034 1.719.007 3.441.01 5.16zm-5.266 2.484v-5.013h-5.006v5.013h5.006zM26.009 106.764c0 1.679.02 3.358-.007 5.037-.026 1.719-1.017 2.76-2.736 2.78-3.358.04-6.713.04-10.07 0-1.71-.02-2.76-1.061-2.78-2.76a419.39 419.39 0 010-10.07c.02-1.729 1.047-2.74 2.763-2.757 3.357-.03 6.712-.03 10.07-.003 1.753.013 2.703 1 2.76 2.736.003.084.003.168.003.252-.003 1.598-.003 3.19-.003 4.785zm-10.312-2.539v5.071h5.04v-5.071h-5.04zM98.992 106.818c0-1.636-.013-3.274.004-4.909.02-1.921.95-2.902 2.837-2.915 3.314-.027 6.632-.027 9.946.003 1.803.017 2.797 1.011 2.814 2.828.03 3.314.034 6.631-.003 9.945-.021 1.773-1.072 2.801-2.858 2.817a507.31 507.31 0 01-9.946 0c-1.786-.02-2.767-1.057-2.79-2.857-.017-1.642 0-3.277-.004-4.912zm10.322-2.549h-5.077v5.023h5.077v-5.023zM57.26 54.685c0 1.679.028 3.357-.006 5.033-.034 1.73-1.02 2.74-2.753 2.757-3.358.033-6.713.033-10.07 0-1.653-.017-2.72-1.011-2.75-2.656-.061-3.439-.061-6.88.003-10.322.03-1.642 1.108-2.602 2.773-2.616 3.358-.023 6.713-.027 10.07 0 1.73.014 2.697 1.01 2.73 2.767.03 1.682.004 3.361.004 5.037zm-10.298-2.522v5h5.07v-5h-5.07zM67.744 54.618c0-1.68-.027-3.358.007-5.034.037-1.675 1.007-2.68 2.67-2.696a542.15 542.15 0 0110.194 0c1.598.013 2.67.967 2.7 2.552.067 3.482.067 6.964 0 10.446-.03 1.581-1.102 2.569-2.683 2.589-3.398.04-6.797.04-10.195 0-1.659-.02-2.65-1.044-2.686-2.693-.037-1.723-.007-3.442-.007-5.164zm10.312 2.588v-5.04H73v5.04h5.057zM49.528 67.743c1.678 0 3.357-.023 5.033.007 1.706.03 2.67.953 2.686 2.652.037 3.398.034 6.797.004 10.195-.014 1.658-.994 2.693-2.66 2.72-3.398.053-6.796.05-10.194.003-1.66-.024-2.693-1.034-2.72-2.686a322.258 322.258 0 01-.004-10.195c.027-1.725 1.075-2.649 2.818-2.696.084-.003.168 0 .252 0 1.595-.003 3.19-.003 4.785 0zm2.468 10.325v-5.073h-5.02v5.073h5.02zM75.578 67.743c1.635 0 3.274-.017 4.91.004 1.769.023 2.813.936 2.84 2.659.057 3.398.057 6.796 0 10.194-.027 1.713-1.078 2.703-2.817 2.723-3.315.04-6.629.037-9.943 0-1.827-.02-2.804-1.017-2.817-2.824a614.745 614.745 0 010-9.942c.013-1.853.953-2.784 2.793-2.81 1.676-.024 3.355-.004 5.034-.004zm-2.612 10.312h5.093v-5.047h-5.093v5.047z" fill="#fff"/></svg>