<svg width="24" height="24" fill="none" xmlns="http://www.w3.org/2000/svg"><rect width="24" height="24" rx="12" fill="#fff"/><path fill-rule="evenodd" clip-rule="evenodd" d="M8.977 4.71c.782-.035 1.031-.043 3.023-.043 1.992 0 2.241.008 3.023.044.781.035 1.314.16 1.781.34.489.185.932.474 1.299.847.373.366.661.809.845 1.298.181.467.305 1 .341 1.78.036.783.044 1.033.044 3.024 0 1.992-.008 2.241-.044 3.023-.035.78-.16 1.314-.341 1.78-.184.49-.473.933-.845 1.3-.367.373-.81.661-1.299.845-.467.181-1 .305-1.78.341-.783.036-1.032.044-3.024.044s-2.241-.008-3.023-.044c-.78-.035-1.314-.16-1.78-.34a3.597 3.597 0 01-1.3-.846 3.595 3.595 0 01-.846-1.299c-.18-.467-.304-1-.34-1.78-.036-.783-.044-1.033-.044-3.024 0-1.992.008-2.241.044-3.023.035-.78.16-1.314.34-1.78.185-.49.474-.933.847-1.3a3.595 3.595 0 011.298-.846c.467-.18 1-.304 1.78-.34zm5.986 1.32c-.773-.035-1.005-.042-2.963-.042-1.958 0-2.19.007-2.963.043-.716.032-1.104.152-1.362.252a2.277 2.277 0 00-.844.548c-.243.237-.43.525-.548.844-.1.258-.22.646-.252 1.362-.036.773-.043 1.005-.043 2.963 0 1.958.007 2.19.043 2.963.032.716.152 1.104.252 1.362.118.318.305.607.548.844.237.243.526.43.844.548.258.1.646.22 1.362.252.773.036 1.004.043 2.963.043s2.19-.007 2.963-.043c.716-.032 1.104-.152 1.362-.252.342-.134.587-.292.844-.548.243-.237.43-.526.548-.844.1-.258.22-.646.252-1.362.036-.773.043-1.005.043-2.963 0-1.958-.007-2.19-.043-2.963-.032-.716-.152-1.104-.252-1.362a2.276 2.276 0 00-.548-.844 2.275 2.275 0 00-.844-.548c-.258-.1-.646-.22-1.362-.252zm-3.9 8.23a2.446 2.446 0 101.761-4.563 2.447 2.447 0 00-1.76 4.564zM9.335 9.336a3.77 3.77 0 115.33 5.33 3.77 3.77 0 01-5.33-5.33zm7.27-.543a.891.891 0 10-1.223-1.297.891.891 0 001.223 1.297z" fill="#14213D"/></svg>