<svg width="132" height="25" fill="none" xmlns="http://www.w3.org/2000/svg"><path d="M11.484 24H7.016V6.078H.28V1.594h17.922v4.484h-6.719V24zm11.438 0h-4.266V7.266h1.032l1.406 1.984a7.333 7.333 0 012.343-1.438 7.371 7.371 0 012.72-.515h3.765v4.25h-3.766a3.227 3.227 0 00-2.297.937c-.291.292-.52.636-.687 1.032-.167.396-.25.817-.25 1.265V24zm24.875 0h-1.031l-1.657-2.297a14.09 14.09 0 01-1.297 1.031c-.447.313-.921.589-1.421.828-.5.23-1.016.412-1.547.547a6.31 6.31 0 01-1.594.203 9.29 9.29 0 01-3.328-.593A8.048 8.048 0 0133.203 22c-.77-.76-1.38-1.688-1.828-2.781-.448-1.094-.672-2.339-.672-3.735 0-1.302.224-2.494.672-3.578.448-1.094 1.057-2.031 1.828-2.812a8.294 8.294 0 012.719-1.813 8.506 8.506 0 013.328-.656c.542 0 1.078.068 1.61.203a8.339 8.339 0 011.546.563c.5.24.974.52 1.422.843.458.323.886.672 1.281 1.047l1.657-1.984h1.03V24zM43.5 15.484c0-.583-.115-1.146-.344-1.687a4.626 4.626 0 00-.906-1.453 4.347 4.347 0 00-1.36-1.016 3.56 3.56 0 00-1.64-.39c-.583 0-1.135.098-1.656.296-.51.198-.959.49-1.344.875a4.154 4.154 0 00-.89 1.438c-.22.562-.329 1.208-.329 1.937 0 .73.11 1.38.328 1.954.22.562.516 1.036.891 1.421.385.386.833.677 1.344.875.52.198 1.073.297 1.656.297a3.68 3.68 0 001.64-.375 4.69 4.69 0 001.36-1.015c.385-.427.688-.912.906-1.453.23-.553.344-1.12.344-1.704zM55.813 24L49.437 7.266h4.86l3.656 10.437 3.64-10.437h4.876L60.094 24h-4.282zm18.437-4.094c.167.052.333.089.5.11.167.01.333.015.5.015.417 0 .818-.057 1.203-.172a4.379 4.379 0 001.078-.484 4.128 4.128 0 001.563-1.813l3.125 3.141a8.27 8.27 0 01-1.375 1.516 8.326 8.326 0 01-1.672 1.14 7.926 7.926 0 01-1.89.703 8.218 8.218 0 01-2.032.25 8.504 8.504 0 01-3.328-.656 8.5 8.5 0 01-2.719-1.828 8.665 8.665 0 01-1.828-2.781c-.448-1.084-.672-2.271-.672-3.563 0-1.322.224-2.53.672-3.625.448-1.093 1.057-2.026 1.828-2.796a8.417 8.417 0 012.719-1.797 8.687 8.687 0 013.328-.641 8.436 8.436 0 013.938.969 8.362 8.362 0 011.687 1.156c.52.448.98.953 1.375 1.516l-8 9.64zm2.188-8.797a2.456 2.456 0 00-.594-.14 5.368 5.368 0 00-.594-.031c-.583 0-1.135.109-1.656.328-.51.208-.959.51-1.344.906a4.358 4.358 0 00-.89 1.437c-.22.553-.329 1.178-.329 1.875 0 .157.005.334.016.532.02.198.047.4.078.609.042.198.088.39.14.578.053.188.12.354.204.5l4.969-6.594zM88.703 24h-4.297V.61h4.297V24z" fill="#fff"/><path d="M110.344 17.281c0 .927-.177 1.797-.532 2.61a6.828 6.828 0 01-3.578 3.578 6.456 6.456 0 01-2.609.531H92.422V1.594h11.203c.927 0 1.797.177 2.609.531a6.697 6.697 0 012.125 1.453 6.695 6.695 0 011.453 2.125c.355.813.532 1.682.532 2.61 0 .416-.058.843-.172 1.28-.115.438-.276.86-.484 1.266a5.519 5.519 0 01-.75 1.11c-.292.333-.615.61-.969.828.364.198.692.469.984.812a5.561 5.561 0 011.219 2.39c.114.439.172.866.172 1.282zm-13.438 2.235h6.719a2.223 2.223 0 001.578-.641c.208-.208.37-.448.485-.719.114-.27.171-.562.171-.875 0-.312-.057-.604-.171-.875a2.084 2.084 0 00-.485-.703 2.07 2.07 0 00-.703-.484 2.22 2.22 0 00-.875-.172h-6.719v4.469zm0-8.953h6.719a2.22 2.22 0 002.063-1.36c.114-.281.171-.578.171-.89 0-.313-.057-.605-.171-.876a2.084 2.084 0 00-.485-.703 2.07 2.07 0 00-.703-.484 2.221 2.221 0 00-.875-.172h-6.719v4.484zm34.782 2.234c0 1.031-.136 2.026-.407 2.984a10.97 10.97 0 01-1.125 2.672 11.845 11.845 0 01-1.75 2.266 11.253 11.253 0 01-2.265 1.75c-.834.49-1.73.87-2.688 1.14-.948.26-1.937.391-2.969.391h-6.75V1.594h6.75c1.032 0 2.021.135 2.969.406.958.26 1.854.635 2.688 1.125.833.49 1.588 1.078 2.265 1.766a11.228 11.228 0 011.75 2.265c.49.823.865 1.714 1.125 2.672.271.948.407 1.938.407 2.969zm-4.485 0c0-.927-.177-1.797-.531-2.61a6.495 6.495 0 00-1.438-2.124 6.652 6.652 0 00-2.14-1.454 6.463 6.463 0 00-2.61-.53h-2.234v13.437h2.234c.927 0 1.797-.172 2.61-.516a6.781 6.781 0 002.14-1.438 6.674 6.674 0 001.438-2.14 6.572 6.572 0 00.531-2.625z" fill="#FFC800"/></svg>