<svg width="80" height="63" fill="none" xmlns="http://www.w3.org/2000/svg"><path d="M72.542 0l4.2 7.4c-3.267 1.533-6.4 3.7-9.4 6.5-3 2.733-5.466 5.633-7.4 8.7-2 3-3.066 5.7-3.2 8.1 2-.933 4.3-1.4 6.9-1.4 4.067 0 7.733 1.367 11 4.1 3.2 2.8 4.8 6.767 4.8 11.9 0 4.933-1.666 8.967-5 12.1-3.333 3.133-7.566 4.7-12.7 4.7-5.733 0-10.333-1.967-13.8-5.9-3.467-3.933-5.2-8.933-5.2-15 0-6.2 1.467-12 4.4-17.4a49.783 49.783 0 0111.2-14.3c4.534-4.133 9.267-7.3 14.2-9.5zM29.8 0L34 7.4c-3.267 1.533-6.4 3.7-9.4 6.5-3 2.733-5.467 5.633-7.4 8.7-2 3-3.067 5.7-3.2 8.1 2-.933 4.3-1.4 6.9-1.4 4.067 0 7.733 1.367 11 4.1 3.2 2.8 4.8 6.767 4.8 11.9 0 4.933-1.667 8.967-5 12.1-3.333 3.133-7.567 4.7-12.7 4.7-5.733 0-10.333-1.967-13.8-5.9-3.467-3.933-5.2-8.933-5.2-15 0-6.2 1.467-12 4.4-17.4A49.783 49.783 0 0115.6 9.5c4.533-4.133 9.267-7.3 14.2-9.5z" fill="#FFC800" fill-opacity=".3"/></svg>