<svg width="24" height="24" fill="none" xmlns="http://www.w3.org/2000/svg"><rect width="24" height="24" rx="12" fill="#fff"/><path d="M19.996 6.542a6.57 6.57 0 01-1.884.516 3.289 3.289 0 001.442-1.815 6.549 6.549 0 01-2.083.795 3.282 3.282 0 00-5.59 2.994 9.317 9.317 0 01-6.763-3.429 3.28 3.28 0 00-.057 3.198c.255.477.623.883 1.072 1.183a3.273 3.273 0 01-1.486-.41v.042a3.282 3.282 0 002.632 3.217c-.483.13-.99.15-1.482.056a3.283 3.283 0 003.065 2.278 6.584 6.584 0 01-4.858 1.359A9.279 9.279 0 009.033 18c6.036 0 9.335-4.999 9.335-9.335 0-.14-.003-.283-.01-.424a6.67 6.67 0 001.636-1.697l.002-.002z" fill="#14213D"/></svg>